<svg width="722" height="941" viewBox="0 0 722 941" fill="none" xmlns="http://www.w3.org/2000/svg">
<rect width="722" height="941" fill="#E5E5E5" fill-opacity="0.01"/>
<path d="M0.486874 217.48C0.764113 117.836 142.999 115.849 142.694 217.48C142.39 319.111 142.694 816.211 142.694 816.211C144.72 912.774 1.42783 911.078 0.486874 816.211C-0.45408 721.344 0.209634 317.124 0.486874 217.48Z" fill="#0779B9"/>
<path d="M579.771 217.481C580.048 117.837 722.283 115.851 721.979 217.481C721.674 319.112 721.979 816.212 721.979 816.212C724.004 912.776 580.712 911.079 579.771 816.212C578.83 721.346 579.494 317.126 579.771 217.481Z" fill="#1EEDED"/>
<path d="M306 673.836C306 587.007 439.991 593.312 439.991 663.649C439.991 733.986 440.011 818.409 439.991 889.212C439.972 960.016 305.981 956.487 306 889.212C306.019 821.937 306 760.664 306 673.836Z" fill="#CCDD0D"/>
<path d="M306 64.0393C306 -22.7891 439.991 -16.4845 439.991 53.8525C439.991 124.189 440.011 208.612 439.991 279.415C439.972 350.219 305.981 346.69 306 279.415C306.019 212.141 306 150.868 306 64.0393Z" fill="#CCDD0D"/>
<path d="M684 515.5C684 534.002 669.002 549 650.5 549C631.998 549 617 534.002 617 515.5C617 496.998 631.998 482 650.5 482C669.002 482 684 496.998 684 515.5Z" fill="#FDF0F0"/>
<ellipse cx="373.5" cy="470" rx="114.5" ry="109" fill="#F54A14"/>
<path d="M339 401L463 465.385L339 540V401Z" fill="#FCF2F2"/>
<path d="M697 407.5C697 414.956 690.956 421 683.5 421C676.044 421 670 414.956 670 407.5C670 400.044 676.044 394 683.5 394C690.956 394 697 400.044 697 407.5Z" fill="#FDF0F0"/>
</svg>
